<?xml version="1.0" encoding="utf-8" standalone="no"?>
<!DOCTYPE svg PUBLIC "-//W3C//DTD SVG 1.1//EN"
  "http://www.w3.org/Graphics/SVG/1.1/DTD/svg11.dtd">
<svg height="94.770206pt" version="1.1" viewBox="0 0 130.054824 94.770206" width="130.054824pt" xmlns="http://www.w3.org/2000/svg" xmlns:xlink="http://www.w3.org/1999/xlink">
 <metadata>
  <rdf:RDF xmlns:cc="http://creativecommons.org/ns#" xmlns:dc="http://purl.org/dc/elements/1.1/" xmlns:rdf="http://www.w3.org/1999/02/22-rdf-syntax-ns#">
   <cc:Work>
    <dc:type rdf:resource="http://purl.org/dc/dcmitype/StillImage"/>
    <dc:date>2022-11-21T12:06:08.040191</dc:date>
    <dc:format>image/svg+xml</dc:format>
    <dc:creator>
     <cc:Agent>
      <dc:title>Matplotlib v3.4.2, https://matplotlib.org/</dc:title>
     </cc:Agent>
    </dc:creator>
   </cc:Work>
  </rdf:RDF>
 </metadata>
 <defs>
  <style type="text/css">*{stroke-linecap:butt;stroke-linejoin:round;}</style>
 </defs>
 <g id="figure_1">
  <g id="patch_1">
   <path d="M 0 94.770206 
L 130.054824 94.770206 
L 130.054824 0 
L 0 0 
z
" style="fill:#ffffff;"/>
  </g>
  <g id="axes_1">
   <g id="patch_2">
    <path d="M 14.854824 81.216 
L 126.454824 81.216 
L 126.454824 3.6 
L 14.854824 3.6 
z
" style="fill:#ffffff;"/>
   </g>
   <g id="PolyCollection_1">
    <path clip-path="url(#pde8ca5e9fb)" d="M 19.927552 11.437464 
L 19.927552 11.579954 
L 26.691188 11.780191 
L 33.454824 13.030691 
L 40.218461 17.327603 
L 46.982097 24.998489 
L 53.745734 34.663853 
L 60.50937 42.945109 
L 67.273006 49.163049 
L 74.036643 54.435986 
L 80.800279 58.763394 
L 87.563915 61.827725 
L 94.327552 64.288424 
L 101.091188 66.307194 
L 107.854824 67.923698 
L 114.618461 69.088748 
L 121.382097 69.91552 
L 121.382097 69.025784 
L 121.382097 69.025784 
L 114.618461 68.635997 
L 107.854824 67.230639 
L 101.091188 65.170774 
L 94.327552 63.200453 
L 87.563915 60.939838 
L 80.800279 58.039602 
L 74.036643 54.007462 
L 67.273006 48.720369 
L 60.50937 42.242628 
L 53.745734 34.060305 
L 46.982097 24.687868 
L 40.218461 16.711298 
L 33.454824 12.492303 
L 26.691188 11.626221 
L 19.927552 11.437464 
z
" style="fill:#0c5da5;fill-opacity:0.3;"/>
   </g>
   <g id="PolyCollection_2">
    <path clip-path="url(#pde8ca5e9fb)" d="M 19.927552 7.128 
L 19.927552 7.255287 
L 26.691188 7.344317 
L 33.454824 7.758049 
L 40.218461 10.427738 
L 46.982097 18.838582 
L 53.745734 33.614331 
L 60.50937 46.593586 
L 67.273006 56.363628 
L 74.036643 63.007919 
L 80.800279 67.288586 
L 87.563915 70.831976 
L 94.327552 72.948712 
L 101.091188 74.951227 
L 107.854824 76.001461 
L 114.618461 77.040743 
L 121.382097 77.688 
L 121.382097 77.266871 
L 121.382097 77.266871 
L 114.618461 76.647992 
L 107.854824 75.791884 
L 101.091188 74.378492 
L 94.327552 72.727519 
L 87.563915 70.405152 
L 80.800279 66.786485 
L 74.036643 62.360562 
L 67.273006 55.618899 
L 60.50937 45.973587 
L 53.745734 32.741543 
L 46.982097 18.590665 
L 40.218461 10.175632 
L 33.454824 7.567213 
L 26.691188 7.229653 
L 19.927552 7.128 
z
" style="fill:#00b945;fill-opacity:0.3;"/>
   </g>
   <g id="matplotlib.axis_1">
    <g id="xtick_1">
     <g id="line2d_1">
      <defs>
       <path d="M 0 0 
L 0 -3 
" id="m1c88c5545e" style="stroke:#000000;stroke-width:0.5;"/>
      </defs>
      <g>
       <use style="stroke:#000000;stroke-width:0.5;" x="19.927552" xlink:href="#m1c88c5545e" y="81.216"/>
      </g>
     </g>
     <g id="line2d_2">
      <defs>
       <path d="M 0 0 
L 0 3 
" id="m8f92648a7a" style="stroke:#000000;stroke-width:0.5;"/>
      </defs>
      <g>
       <use style="stroke:#000000;stroke-width:0.5;" x="19.927552" xlink:href="#m8f92648a7a" y="3.6"/>
      </g>
     </g>
     <g id="text_1">
      <!-- $\mathdefault{0}$ -->
      <g transform="translate(17.988846 89.684824)scale(0.07 -0.07)">
       <defs>
        <path d="M 1760 4544 
C 1338 4544 954 4360 717 4046 
C 422 3651 275 3044 275 2208 
C 275 683 787 -128 1760 -128 
C 2720 -128 3245 683 3245 2170 
C 3245 3050 3104 3638 2803 4046 
C 2566 4366 2189 4544 1760 4544 
z
M 1760 4044 
C 2368 4044 2669 3432 2669 2221 
C 2669 939 2374 340 1747 340 
C 1152 340 851 965 851 2202 
C 851 3438 1152 4044 1760 4044 
z
" id="NimbusSanL-Regu-30" transform="scale(0.015625)"/>
       </defs>
       <use transform="scale(0.996264)" xlink:href="#NimbusSanL-Regu-30"/>
      </g>
     </g>
    </g>
    <g id="xtick_2">
     <g id="line2d_3">
      <g>
       <use style="stroke:#000000;stroke-width:0.5;" x="53.745734" xlink:href="#m1c88c5545e" y="81.216"/>
      </g>
     </g>
     <g id="line2d_4">
      <g>
       <use style="stroke:#000000;stroke-width:0.5;" x="53.745734" xlink:href="#m8f92648a7a" y="3.6"/>
      </g>
     </g>
     <g id="text_2">
      <!-- $\mathdefault{1}$ -->
      <g transform="translate(51.807027 89.684824)scale(0.07 -0.07)">
       <defs>
        <path d="M 1658 3238 
L 1658 0 
L 2221 0 
L 2221 4545 
L 1850 4545 
C 1651 3847 1523 3751 653 3642 
L 653 3238 
L 1658 3238 
z
" id="NimbusSanL-Regu-31" transform="scale(0.015625)"/>
       </defs>
       <use transform="scale(0.996264)" xlink:href="#NimbusSanL-Regu-31"/>
      </g>
     </g>
    </g>
    <g id="xtick_3">
     <g id="line2d_5">
      <g>
       <use style="stroke:#000000;stroke-width:0.5;" x="87.563915" xlink:href="#m1c88c5545e" y="81.216"/>
      </g>
     </g>
     <g id="line2d_6">
      <g>
       <use style="stroke:#000000;stroke-width:0.5;" x="87.563915" xlink:href="#m8f92648a7a" y="3.6"/>
      </g>
     </g>
     <g id="text_3">
      <!-- $\mathdefault{2}$ -->
      <g transform="translate(85.625209 89.684824)scale(0.07 -0.07)">
       <defs>
        <path d="M 3238 558 
L 851 558 
C 909 930 1114 1167 1670 1494 
L 2310 1840 
C 2944 2186 3270 2653 3270 3211 
C 3270 3589 3117 3942 2848 4185 
C 2579 4429 2246 4544 1818 4544 
C 1242 4544 813 4339 563 3955 
C 403 3711 333 3429 320 2967 
L 883 2967 
C 902 3275 941 3461 1018 3608 
C 1165 3884 1459 4051 1798 4051 
C 2310 4051 2694 3685 2694 3198 
C 2694 2839 2483 2531 2080 2301 
L 1491 1968 
C 544 1430 269 1000 218 0 
L 3238 0 
L 3238 558 
z
" id="NimbusSanL-Regu-32" transform="scale(0.015625)"/>
       </defs>
       <use transform="scale(0.996264)" xlink:href="#NimbusSanL-Regu-32"/>
      </g>
     </g>
    </g>
    <g id="xtick_4">
     <g id="line2d_7">
      <g>
       <use style="stroke:#000000;stroke-width:0.5;" x="121.382097" xlink:href="#m1c88c5545e" y="81.216"/>
      </g>
     </g>
     <g id="line2d_8">
      <g>
       <use style="stroke:#000000;stroke-width:0.5;" x="121.382097" xlink:href="#m8f92648a7a" y="3.6"/>
      </g>
     </g>
     <g id="text_4">
      <!-- $\mathdefault{3}$ -->
      <g transform="translate(119.443391 89.684824)scale(0.07 -0.07)">
       <defs>
        <path d="M 1414 2112 
L 1485 2112 
L 1722 2112 
C 2342 2112 2662 1830 2662 1284 
C 2662 712 2310 372 1722 372 
C 1107 372 806 681 768 1345 
L 205 1345 
C 230 978 294 740 403 534 
C 634 97 1082 -128 1702 -128 
C 2637 -128 3238 431 3238 1293 
C 3238 1872 3014 2194 2470 2381 
C 2893 2546 3104 2862 3104 3311 
C 3104 4082 2586 4544 1722 4544 
C 806 4544 320 4050 301 3095 
L 864 3095 
C 870 3366 896 3517 966 3655 
C 1094 3900 1376 4051 1728 4051 
C 2227 4051 2528 3760 2528 3287 
C 2528 2971 2413 2781 2163 2681 
C 2010 2618 1811 2592 1414 2592 
L 1414 2112 
z
" id="NimbusSanL-Regu-33" transform="scale(0.015625)"/>
       </defs>
       <use transform="scale(0.996264)" xlink:href="#NimbusSanL-Regu-33"/>
      </g>
     </g>
    </g>
    <g id="xtick_5">
     <g id="line2d_9">
      <defs>
       <path d="M 0 0 
L 0 -1.5 
" id="mc261bb5eee" style="stroke:#000000;stroke-width:0.5;"/>
      </defs>
      <g>
       <use style="stroke:#000000;stroke-width:0.5;" x="26.691188" xlink:href="#mc261bb5eee" y="81.216"/>
      </g>
     </g>
     <g id="line2d_10">
      <defs>
       <path d="M 0 0 
L 0 1.5 
" id="ma7188a7f80" style="stroke:#000000;stroke-width:0.5;"/>
      </defs>
      <g>
       <use style="stroke:#000000;stroke-width:0.5;" x="26.691188" xlink:href="#ma7188a7f80" y="3.6"/>
      </g>
     </g>
    </g>
    <g id="xtick_6">
     <g id="line2d_11">
      <g>
       <use style="stroke:#000000;stroke-width:0.5;" x="33.454824" xlink:href="#mc261bb5eee" y="81.216"/>
      </g>
     </g>
     <g id="line2d_12">
      <g>
       <use style="stroke:#000000;stroke-width:0.5;" x="33.454824" xlink:href="#ma7188a7f80" y="3.6"/>
      </g>
     </g>
    </g>
    <g id="xtick_7">
     <g id="line2d_13">
      <g>
       <use style="stroke:#000000;stroke-width:0.5;" x="40.218461" xlink:href="#mc261bb5eee" y="81.216"/>
      </g>
     </g>
     <g id="line2d_14">
      <g>
       <use style="stroke:#000000;stroke-width:0.5;" x="40.218461" xlink:href="#ma7188a7f80" y="3.6"/>
      </g>
     </g>
    </g>
    <g id="xtick_8">
     <g id="line2d_15">
      <g>
       <use style="stroke:#000000;stroke-width:0.5;" x="46.982097" xlink:href="#mc261bb5eee" y="81.216"/>
      </g>
     </g>
     <g id="line2d_16">
      <g>
       <use style="stroke:#000000;stroke-width:0.5;" x="46.982097" xlink:href="#ma7188a7f80" y="3.6"/>
      </g>
     </g>
    </g>
    <g id="xtick_9">
     <g id="line2d_17">
      <g>
       <use style="stroke:#000000;stroke-width:0.5;" x="60.50937" xlink:href="#mc261bb5eee" y="81.216"/>
      </g>
     </g>
     <g id="line2d_18">
      <g>
       <use style="stroke:#000000;stroke-width:0.5;" x="60.50937" xlink:href="#ma7188a7f80" y="3.6"/>
      </g>
     </g>
    </g>
    <g id="xtick_10">
     <g id="line2d_19">
      <g>
       <use style="stroke:#000000;stroke-width:0.5;" x="67.273006" xlink:href="#mc261bb5eee" y="81.216"/>
      </g>
     </g>
     <g id="line2d_20">
      <g>
       <use style="stroke:#000000;stroke-width:0.5;" x="67.273006" xlink:href="#ma7188a7f80" y="3.6"/>
      </g>
     </g>
    </g>
    <g id="xtick_11">
     <g id="line2d_21">
      <g>
       <use style="stroke:#000000;stroke-width:0.5;" x="74.036643" xlink:href="#mc261bb5eee" y="81.216"/>
      </g>
     </g>
     <g id="line2d_22">
      <g>
       <use style="stroke:#000000;stroke-width:0.5;" x="74.036643" xlink:href="#ma7188a7f80" y="3.6"/>
      </g>
     </g>
    </g>
    <g id="xtick_12">
     <g id="line2d_23">
      <g>
       <use style="stroke:#000000;stroke-width:0.5;" x="80.800279" xlink:href="#mc261bb5eee" y="81.216"/>
      </g>
     </g>
     <g id="line2d_24">
      <g>
       <use style="stroke:#000000;stroke-width:0.5;" x="80.800279" xlink:href="#ma7188a7f80" y="3.6"/>
      </g>
     </g>
    </g>
    <g id="xtick_13">
     <g id="line2d_25">
      <g>
       <use style="stroke:#000000;stroke-width:0.5;" x="94.327552" xlink:href="#mc261bb5eee" y="81.216"/>
      </g>
     </g>
     <g id="line2d_26">
      <g>
       <use style="stroke:#000000;stroke-width:0.5;" x="94.327552" xlink:href="#ma7188a7f80" y="3.6"/>
      </g>
     </g>
    </g>
    <g id="xtick_14">
     <g id="line2d_27">
      <g>
       <use style="stroke:#000000;stroke-width:0.5;" x="101.091188" xlink:href="#mc261bb5eee" y="81.216"/>
      </g>
     </g>
     <g id="line2d_28">
      <g>
       <use style="stroke:#000000;stroke-width:0.5;" x="101.091188" xlink:href="#ma7188a7f80" y="3.6"/>
      </g>
     </g>
    </g>
    <g id="xtick_15">
     <g id="line2d_29">
      <g>
       <use style="stroke:#000000;stroke-width:0.5;" x="107.854824" xlink:href="#mc261bb5eee" y="81.216"/>
      </g>
     </g>
     <g id="line2d_30">
      <g>
       <use style="stroke:#000000;stroke-width:0.5;" x="107.854824" xlink:href="#ma7188a7f80" y="3.6"/>
      </g>
     </g>
    </g>
    <g id="xtick_16">
     <g id="line2d_31">
      <g>
       <use style="stroke:#000000;stroke-width:0.5;" x="114.618461" xlink:href="#mc261bb5eee" y="81.216"/>
      </g>
     </g>
     <g id="line2d_32">
      <g>
       <use style="stroke:#000000;stroke-width:0.5;" x="114.618461" xlink:href="#ma7188a7f80" y="3.6"/>
      </g>
     </g>
    </g>
   </g>
   <g id="matplotlib.axis_2">
    <g id="ytick_1">
     <g id="line2d_33">
      <defs>
       <path d="M 0 0 
L 3 0 
" id="mecfa8ed6cf" style="stroke:#000000;stroke-width:0.5;"/>
      </defs>
      <g>
       <use style="stroke:#000000;stroke-width:0.5;" x="14.854824" xlink:href="#mecfa8ed6cf" y="70.891241"/>
      </g>
     </g>
     <g id="line2d_34">
      <defs>
       <path d="M 0 0 
L -3 0 
" id="mfe01388c1e" style="stroke:#000000;stroke-width:0.5;"/>
      </defs>
      <g>
       <use style="stroke:#000000;stroke-width:0.5;" x="126.454824" xlink:href="#mfe01388c1e" y="70.891241"/>
      </g>
     </g>
     <g id="text_5">
      <!-- $\mathdefault{20}$ -->
      <g transform="translate(3.6 73.375653)scale(0.07 -0.07)">
       <use transform="scale(0.996264)" xlink:href="#NimbusSanL-Regu-32"/>
       <use transform="translate(55.391677 0)scale(0.996264)" xlink:href="#NimbusSanL-Regu-30"/>
      </g>
     </g>
    </g>
    <g id="ytick_2">
     <g id="line2d_35">
      <g>
       <use style="stroke:#000000;stroke-width:0.5;" x="14.854824" xlink:href="#mecfa8ed6cf" y="51.822931"/>
      </g>
     </g>
     <g id="line2d_36">
      <g>
       <use style="stroke:#000000;stroke-width:0.5;" x="126.454824" xlink:href="#mfe01388c1e" y="51.822931"/>
      </g>
     </g>
     <g id="text_6">
      <!-- $\mathdefault{40}$ -->
      <g transform="translate(3.6 54.307343)scale(0.07 -0.07)">
       <defs>
        <path d="M 2093 1088 
L 2093 0 
L 2656 0 
L 2656 1088 
L 3328 1088 
L 3328 1594 
L 2656 1594 
L 2656 4545 
L 2240 4545 
L 179 1684 
L 179 1088 
L 2093 1088 
z
M 2093 1594 
L 672 1594 
L 2093 3583 
L 2093 1594 
z
" id="NimbusSanL-Regu-34" transform="scale(0.015625)"/>
       </defs>
       <use transform="scale(0.996264)" xlink:href="#NimbusSanL-Regu-34"/>
       <use transform="translate(55.391677 0)scale(0.996264)" xlink:href="#NimbusSanL-Regu-30"/>
      </g>
     </g>
    </g>
    <g id="ytick_3">
     <g id="line2d_37">
      <g>
       <use style="stroke:#000000;stroke-width:0.5;" x="14.854824" xlink:href="#mecfa8ed6cf" y="32.75462"/>
      </g>
     </g>
     <g id="line2d_38">
      <g>
       <use style="stroke:#000000;stroke-width:0.5;" x="126.454824" xlink:href="#mfe01388c1e" y="32.75462"/>
      </g>
     </g>
     <g id="text_7">
      <!-- $\mathdefault{60}$ -->
      <g transform="translate(3.6 35.239033)scale(0.07 -0.07)">
       <defs>
        <path d="M 3187 3382 
C 3078 4111 2592 4544 1901 4544 
C 1402 4544 954 4302 685 3900 
C 403 3460 275 2904 275 2081 
C 275 1321 390 836 659 434 
C 902 69 1299 -128 1798 -128 
C 2662 -128 3283 518 3283 1415 
C 3283 2268 2707 2868 1894 2868 
C 1446 2868 1094 2695 851 2362 
C 858 3444 1216 4044 1862 4044 
C 2259 4044 2534 3803 2624 3382 
L 3187 3382 
z
M 1824 2368 
C 2368 2368 2707 1986 2707 1370 
C 2707 793 2323 372 1805 372 
C 1280 372 883 813 883 1402 
C 883 1973 1267 2368 1824 2368 
z
" id="NimbusSanL-Regu-36" transform="scale(0.015625)"/>
       </defs>
       <use transform="scale(0.996264)" xlink:href="#NimbusSanL-Regu-36"/>
       <use transform="translate(55.391677 0)scale(0.996264)" xlink:href="#NimbusSanL-Regu-30"/>
      </g>
     </g>
    </g>
    <g id="ytick_4">
     <g id="line2d_39">
      <g>
       <use style="stroke:#000000;stroke-width:0.5;" x="14.854824" xlink:href="#mecfa8ed6cf" y="13.68631"/>
      </g>
     </g>
     <g id="line2d_40">
      <g>
       <use style="stroke:#000000;stroke-width:0.5;" x="126.454824" xlink:href="#mfe01388c1e" y="13.68631"/>
      </g>
     </g>
     <g id="text_8">
      <!-- $\mathdefault{80}$ -->
      <g transform="translate(3.6 16.170722)scale(0.07 -0.07)">
       <defs>
        <path d="M 2502 2399 
C 2970 2680 3123 2910 3123 3338 
C 3123 4046 2566 4544 1760 4544 
C 960 4544 397 4046 397 3338 
C 397 2917 550 2687 1011 2399 
C 493 2150 237 1774 237 1276 
C 237 446 864 -128 1760 -128 
C 2656 -128 3283 447 3283 1270 
C 3283 1774 3027 2150 2502 2399 
z
M 1760 4044 
C 2240 4044 2547 3764 2547 3325 
C 2547 2904 2234 2624 1760 2624 
C 1286 2624 973 2904 973 3331 
C 973 3764 1286 4044 1760 4044 
z
M 1760 2149 
C 2323 2149 2707 1792 2707 1263 
C 2707 729 2323 372 1747 372 
C 1197 372 813 735 813 1263 
C 813 1792 1197 2149 1760 2149 
z
" id="NimbusSanL-Regu-38" transform="scale(0.015625)"/>
       </defs>
       <use transform="scale(0.996264)" xlink:href="#NimbusSanL-Regu-38"/>
       <use transform="translate(55.391677 0)scale(0.996264)" xlink:href="#NimbusSanL-Regu-30"/>
      </g>
     </g>
    </g>
    <g id="ytick_5">
     <g id="line2d_41">
      <defs>
       <path d="M 0 0 
L 1.5 0 
" id="mb88699fa3a" style="stroke:#000000;stroke-width:0.5;"/>
      </defs>
      <g>
       <use style="stroke:#000000;stroke-width:0.5;" x="14.854824" xlink:href="#mb88699fa3a" y="80.425396"/>
      </g>
     </g>
     <g id="line2d_42">
      <defs>
       <path d="M 0 0 
L -1.5 0 
" id="m95bb8f5b15" style="stroke:#000000;stroke-width:0.5;"/>
      </defs>
      <g>
       <use style="stroke:#000000;stroke-width:0.5;" x="126.454824" xlink:href="#m95bb8f5b15" y="80.425396"/>
      </g>
     </g>
    </g>
    <g id="ytick_6">
     <g id="line2d_43">
      <g>
       <use style="stroke:#000000;stroke-width:0.5;" x="14.854824" xlink:href="#mb88699fa3a" y="75.658319"/>
      </g>
     </g>
     <g id="line2d_44">
      <g>
       <use style="stroke:#000000;stroke-width:0.5;" x="126.454824" xlink:href="#m95bb8f5b15" y="75.658319"/>
      </g>
     </g>
    </g>
    <g id="ytick_7">
     <g id="line2d_45">
      <g>
       <use style="stroke:#000000;stroke-width:0.5;" x="14.854824" xlink:href="#mb88699fa3a" y="66.124163"/>
      </g>
     </g>
     <g id="line2d_46">
      <g>
       <use style="stroke:#000000;stroke-width:0.5;" x="126.454824" xlink:href="#m95bb8f5b15" y="66.124163"/>
      </g>
     </g>
    </g>
    <g id="ytick_8">
     <g id="line2d_47">
      <g>
       <use style="stroke:#000000;stroke-width:0.5;" x="14.854824" xlink:href="#mb88699fa3a" y="61.357086"/>
      </g>
     </g>
     <g id="line2d_48">
      <g>
       <use style="stroke:#000000;stroke-width:0.5;" x="126.454824" xlink:href="#m95bb8f5b15" y="61.357086"/>
      </g>
     </g>
    </g>
    <g id="ytick_9">
     <g id="line2d_49">
      <g>
       <use style="stroke:#000000;stroke-width:0.5;" x="14.854824" xlink:href="#mb88699fa3a" y="56.590008"/>
      </g>
     </g>
     <g id="line2d_50">
      <g>
       <use style="stroke:#000000;stroke-width:0.5;" x="126.454824" xlink:href="#m95bb8f5b15" y="56.590008"/>
      </g>
     </g>
    </g>
    <g id="ytick_10">
     <g id="line2d_51">
      <g>
       <use style="stroke:#000000;stroke-width:0.5;" x="14.854824" xlink:href="#mb88699fa3a" y="47.055853"/>
      </g>
     </g>
     <g id="line2d_52">
      <g>
       <use style="stroke:#000000;stroke-width:0.5;" x="126.454824" xlink:href="#m95bb8f5b15" y="47.055853"/>
      </g>
     </g>
    </g>
    <g id="ytick_11">
     <g id="line2d_53">
      <g>
       <use style="stroke:#000000;stroke-width:0.5;" x="14.854824" xlink:href="#mb88699fa3a" y="42.288776"/>
      </g>
     </g>
     <g id="line2d_54">
      <g>
       <use style="stroke:#000000;stroke-width:0.5;" x="126.454824" xlink:href="#m95bb8f5b15" y="42.288776"/>
      </g>
     </g>
    </g>
    <g id="ytick_12">
     <g id="line2d_55">
      <g>
       <use style="stroke:#000000;stroke-width:0.5;" x="14.854824" xlink:href="#mb88699fa3a" y="37.521698"/>
      </g>
     </g>
     <g id="line2d_56">
      <g>
       <use style="stroke:#000000;stroke-width:0.5;" x="126.454824" xlink:href="#m95bb8f5b15" y="37.521698"/>
      </g>
     </g>
    </g>
    <g id="ytick_13">
     <g id="line2d_57">
      <g>
       <use style="stroke:#000000;stroke-width:0.5;" x="14.854824" xlink:href="#mb88699fa3a" y="27.987543"/>
      </g>
     </g>
     <g id="line2d_58">
      <g>
       <use style="stroke:#000000;stroke-width:0.5;" x="126.454824" xlink:href="#m95bb8f5b15" y="27.987543"/>
      </g>
     </g>
    </g>
    <g id="ytick_14">
     <g id="line2d_59">
      <g>
       <use style="stroke:#000000;stroke-width:0.5;" x="14.854824" xlink:href="#mb88699fa3a" y="23.220465"/>
      </g>
     </g>
     <g id="line2d_60">
      <g>
       <use style="stroke:#000000;stroke-width:0.5;" x="126.454824" xlink:href="#m95bb8f5b15" y="23.220465"/>
      </g>
     </g>
    </g>
    <g id="ytick_15">
     <g id="line2d_61">
      <g>
       <use style="stroke:#000000;stroke-width:0.5;" x="14.854824" xlink:href="#mb88699fa3a" y="18.453388"/>
      </g>
     </g>
     <g id="line2d_62">
      <g>
       <use style="stroke:#000000;stroke-width:0.5;" x="126.454824" xlink:href="#m95bb8f5b15" y="18.453388"/>
      </g>
     </g>
    </g>
    <g id="ytick_16">
     <g id="line2d_63">
      <g>
       <use style="stroke:#000000;stroke-width:0.5;" x="14.854824" xlink:href="#mb88699fa3a" y="8.919233"/>
      </g>
     </g>
     <g id="line2d_64">
      <g>
       <use style="stroke:#000000;stroke-width:0.5;" x="126.454824" xlink:href="#m95bb8f5b15" y="8.919233"/>
      </g>
     </g>
    </g>
    <g id="ytick_17">
     <g id="line2d_65">
      <g>
       <use style="stroke:#000000;stroke-width:0.5;" x="14.854824" xlink:href="#mb88699fa3a" y="4.152155"/>
      </g>
     </g>
     <g id="line2d_66">
      <g>
       <use style="stroke:#000000;stroke-width:0.5;" x="126.454824" xlink:href="#m95bb8f5b15" y="4.152155"/>
      </g>
     </g>
    </g>
   </g>
   <g id="line2d_67">
    <path clip-path="url(#pde8ca5e9fb)" d="M 19.927552 11.508709 
L 26.691188 11.703206 
L 33.454824 12.761497 
L 40.218461 17.019451 
L 46.982097 24.843178 
L 53.745734 34.362079 
L 60.50937 42.593869 
L 67.273006 48.941709 
L 74.036643 54.221724 
L 80.800279 58.401498 
L 87.563915 61.383782 
L 94.327552 63.744438 
L 101.091188 65.738984 
L 107.854824 67.577169 
L 114.618461 68.862373 
L 121.382097 69.470652 
" style="fill:none;stroke:#0c5da5;stroke-linecap:square;"/>
    <defs>
     <path d="M 0 -1.5 
L -1.5 1.5 
L 1.5 1.5 
z
" id="ma86b1983ba" style="stroke:#0c5da5;stroke-linejoin:miter;"/>
    </defs>
    <g clip-path="url(#pde8ca5e9fb)">
     <use style="fill:#0c5da5;stroke:#0c5da5;stroke-linejoin:miter;" x="19.927552" xlink:href="#ma86b1983ba" y="11.508709"/>
     <use style="fill:#0c5da5;stroke:#0c5da5;stroke-linejoin:miter;" x="26.691188" xlink:href="#ma86b1983ba" y="11.703206"/>
     <use style="fill:#0c5da5;stroke:#0c5da5;stroke-linejoin:miter;" x="33.454824" xlink:href="#ma86b1983ba" y="12.761497"/>
     <use style="fill:#0c5da5;stroke:#0c5da5;stroke-linejoin:miter;" x="40.218461" xlink:href="#ma86b1983ba" y="17.019451"/>
     <use style="fill:#0c5da5;stroke:#0c5da5;stroke-linejoin:miter;" x="46.982097" xlink:href="#ma86b1983ba" y="24.843178"/>
     <use style="fill:#0c5da5;stroke:#0c5da5;stroke-linejoin:miter;" x="53.745734" xlink:href="#ma86b1983ba" y="34.362079"/>
     <use style="fill:#0c5da5;stroke:#0c5da5;stroke-linejoin:miter;" x="60.50937" xlink:href="#ma86b1983ba" y="42.593869"/>
     <use style="fill:#0c5da5;stroke:#0c5da5;stroke-linejoin:miter;" x="67.273006" xlink:href="#ma86b1983ba" y="48.941709"/>
     <use style="fill:#0c5da5;stroke:#0c5da5;stroke-linejoin:miter;" x="74.036643" xlink:href="#ma86b1983ba" y="54.221724"/>
     <use style="fill:#0c5da5;stroke:#0c5da5;stroke-linejoin:miter;" x="80.800279" xlink:href="#ma86b1983ba" y="58.401498"/>
     <use style="fill:#0c5da5;stroke:#0c5da5;stroke-linejoin:miter;" x="87.563915" xlink:href="#ma86b1983ba" y="61.383782"/>
     <use style="fill:#0c5da5;stroke:#0c5da5;stroke-linejoin:miter;" x="94.327552" xlink:href="#ma86b1983ba" y="63.744438"/>
     <use style="fill:#0c5da5;stroke:#0c5da5;stroke-linejoin:miter;" x="101.091188" xlink:href="#ma86b1983ba" y="65.738984"/>
     <use style="fill:#0c5da5;stroke:#0c5da5;stroke-linejoin:miter;" x="107.854824" xlink:href="#ma86b1983ba" y="67.577169"/>
     <use style="fill:#0c5da5;stroke:#0c5da5;stroke-linejoin:miter;" x="114.618461" xlink:href="#ma86b1983ba" y="68.862373"/>
     <use style="fill:#0c5da5;stroke:#0c5da5;stroke-linejoin:miter;" x="121.382097" xlink:href="#ma86b1983ba" y="69.470652"/>
    </g>
   </g>
   <g id="line2d_68">
    <path clip-path="url(#pde8ca5e9fb)" d="M 19.927552 7.191644 
L 26.691188 7.286985 
L 33.454824 7.662631 
L 40.218461 10.301685 
L 46.982097 18.714624 
L 53.745734 33.177937 
L 60.50937 46.283587 
L 67.273006 55.991263 
L 74.036643 62.68424 
L 80.800279 67.037536 
L 87.563915 70.618564 
L 94.327552 72.838116 
L 101.091188 74.66486 
L 107.854824 75.896673 
L 114.618461 76.844368 
L 121.382097 77.477435 
" style="fill:none;stroke:#00b945;stroke-linecap:square;"/>
    <defs>
     <path d="M 0 -1.5 
L -1.5 1.5 
L 1.5 1.5 
z
" id="m8c369622bc" style="stroke:#00b945;stroke-linejoin:miter;"/>
    </defs>
    <g clip-path="url(#pde8ca5e9fb)">
     <use style="fill:#00b945;stroke:#00b945;stroke-linejoin:miter;" x="19.927552" xlink:href="#m8c369622bc" y="7.191644"/>
     <use style="fill:#00b945;stroke:#00b945;stroke-linejoin:miter;" x="26.691188" xlink:href="#m8c369622bc" y="7.286985"/>
     <use style="fill:#00b945;stroke:#00b945;stroke-linejoin:miter;" x="33.454824" xlink:href="#m8c369622bc" y="7.662631"/>
     <use style="fill:#00b945;stroke:#00b945;stroke-linejoin:miter;" x="40.218461" xlink:href="#m8c369622bc" y="10.301685"/>
     <use style="fill:#00b945;stroke:#00b945;stroke-linejoin:miter;" x="46.982097" xlink:href="#m8c369622bc" y="18.714624"/>
     <use style="fill:#00b945;stroke:#00b945;stroke-linejoin:miter;" x="53.745734" xlink:href="#m8c369622bc" y="33.177937"/>
     <use style="fill:#00b945;stroke:#00b945;stroke-linejoin:miter;" x="60.50937" xlink:href="#m8c369622bc" y="46.283587"/>
     <use style="fill:#00b945;stroke:#00b945;stroke-linejoin:miter;" x="67.273006" xlink:href="#m8c369622bc" y="55.991263"/>
     <use style="fill:#00b945;stroke:#00b945;stroke-linejoin:miter;" x="74.036643" xlink:href="#m8c369622bc" y="62.68424"/>
     <use style="fill:#00b945;stroke:#00b945;stroke-linejoin:miter;" x="80.800279" xlink:href="#m8c369622bc" y="67.037536"/>
     <use style="fill:#00b945;stroke:#00b945;stroke-linejoin:miter;" x="87.563915" xlink:href="#m8c369622bc" y="70.618564"/>
     <use style="fill:#00b945;stroke:#00b945;stroke-linejoin:miter;" x="94.327552" xlink:href="#m8c369622bc" y="72.838116"/>
     <use style="fill:#00b945;stroke:#00b945;stroke-linejoin:miter;" x="101.091188" xlink:href="#m8c369622bc" y="74.66486"/>
     <use style="fill:#00b945;stroke:#00b945;stroke-linejoin:miter;" x="107.854824" xlink:href="#m8c369622bc" y="75.896673"/>
     <use style="fill:#00b945;stroke:#00b945;stroke-linejoin:miter;" x="114.618461" xlink:href="#m8c369622bc" y="76.844368"/>
     <use style="fill:#00b945;stroke:#00b945;stroke-linejoin:miter;" x="121.382097" xlink:href="#m8c369622bc" y="77.477435"/>
    </g>
   </g>
   <g id="patch_3">
    <path d="M 14.854824 81.216 
L 14.854824 3.6 
" style="fill:none;stroke:#000000;stroke-linecap:square;stroke-linejoin:miter;stroke-width:0.5;"/>
   </g>
   <g id="patch_4">
    <path d="M 126.454824 81.216 
L 126.454824 3.6 
" style="fill:none;stroke:#000000;stroke-linecap:square;stroke-linejoin:miter;stroke-width:0.5;"/>
   </g>
   <g id="patch_5">
    <path d="M 14.854824 81.216 
L 126.454824 81.216 
" style="fill:none;stroke:#000000;stroke-linecap:square;stroke-linejoin:miter;stroke-width:0.5;"/>
   </g>
   <g id="patch_6">
    <path d="M 14.854824 3.6 
L 126.454824 3.6 
" style="fill:none;stroke:#000000;stroke-linecap:square;stroke-linejoin:miter;stroke-width:0.5;"/>
   </g>
  </g>
 </g>
 <defs>
  <clipPath id="pde8ca5e9fb">
   <rect height="77.616" width="111.6" x="14.854824" y="3.6"/>
  </clipPath>
 </defs>
</svg>
