<?xml version="1.0" encoding="utf-8" standalone="no"?>
<!DOCTYPE svg PUBLIC "-//W3C//DTD SVG 1.1//EN"
  "http://www.w3.org/Graphics/SVG/1.1/DTD/svg11.dtd">
<svg height="94.770206pt" version="1.1" viewBox="0 0 118.894824 94.770206" width="118.894824pt" xmlns="http://www.w3.org/2000/svg" xmlns:xlink="http://www.w3.org/1999/xlink">
 <metadata>
  <rdf:RDF xmlns:cc="http://creativecommons.org/ns#" xmlns:dc="http://purl.org/dc/elements/1.1/" xmlns:rdf="http://www.w3.org/1999/02/22-rdf-syntax-ns#">
   <cc:Work>
    <dc:type rdf:resource="http://purl.org/dc/dcmitype/StillImage"/>
    <dc:date>2023-02-13T13:36:58.033053</dc:date>
    <dc:format>image/svg+xml</dc:format>
    <dc:creator>
     <cc:Agent>
      <dc:title>Matplotlib v3.4.2, https://matplotlib.org/</dc:title>
     </cc:Agent>
    </dc:creator>
   </cc:Work>
  </rdf:RDF>
 </metadata>
 <defs>
  <style type="text/css">*{stroke-linecap:butt;stroke-linejoin:round;}</style>
 </defs>
 <g id="figure_1">
  <g id="patch_1">
   <path d="M 0 94.770206 
L 118.894824 94.770206 
L 118.894824 0 
L 0 0 
z
" style="fill:#ffffff;"/>
  </g>
  <g id="axes_1">
   <g id="patch_2">
    <path d="M 14.854824 81.216 
L 115.294824 81.216 
L 115.294824 3.6 
L 14.854824 3.6 
z
" style="fill:#ffffff;"/>
   </g>
   <g id="matplotlib.axis_1">
    <g id="xtick_1">
     <g id="line2d_1">
      <defs>
       <path d="M 0 0 
L 0 -3 
" id="m58af6d142d" style="stroke:#000000;stroke-width:0.5;"/>
      </defs>
      <g>
       <use style="stroke:#000000;stroke-width:0.5;" x="19.420279" xlink:href="#m58af6d142d" y="81.216"/>
      </g>
     </g>
     <g id="line2d_2">
      <defs>
       <path d="M 0 0 
L 0 3 
" id="m634a998218" style="stroke:#000000;stroke-width:0.5;"/>
      </defs>
      <g>
       <use style="stroke:#000000;stroke-width:0.5;" x="19.420279" xlink:href="#m634a998218" y="3.6"/>
      </g>
     </g>
     <g id="text_1">
      <!-- $\mathdefault{0}$ -->
      <g transform="translate(17.481573 89.684824)scale(0.07 -0.07)">
       <defs>
        <path d="M 1760 4544 
C 1338 4544 954 4360 717 4046 
C 422 3651 275 3044 275 2208 
C 275 683 787 -128 1760 -128 
C 2720 -128 3245 683 3245 2170 
C 3245 3050 3104 3638 2803 4046 
C 2566 4366 2189 4544 1760 4544 
z
M 1760 4044 
C 2368 4044 2669 3432 2669 2221 
C 2669 939 2374 340 1747 340 
C 1152 340 851 965 851 2202 
C 851 3438 1152 4044 1760 4044 
z
" id="NimbusSanL-Regu-30" transform="scale(0.015625)"/>
       </defs>
       <use transform="scale(0.996264)" xlink:href="#NimbusSanL-Regu-30"/>
      </g>
     </g>
    </g>
    <g id="xtick_2">
     <g id="line2d_3">
      <g>
       <use style="stroke:#000000;stroke-width:0.5;" x="49.856643" xlink:href="#m58af6d142d" y="81.216"/>
      </g>
     </g>
     <g id="line2d_4">
      <g>
       <use style="stroke:#000000;stroke-width:0.5;" x="49.856643" xlink:href="#m634a998218" y="3.6"/>
      </g>
     </g>
     <g id="text_2">
      <!-- $\mathdefault{1}$ -->
      <g transform="translate(47.917937 89.684824)scale(0.07 -0.07)">
       <defs>
        <path d="M 1658 3238 
L 1658 0 
L 2221 0 
L 2221 4545 
L 1850 4545 
C 1651 3847 1523 3751 653 3642 
L 653 3238 
L 1658 3238 
z
" id="NimbusSanL-Regu-31" transform="scale(0.015625)"/>
       </defs>
       <use transform="scale(0.996264)" xlink:href="#NimbusSanL-Regu-31"/>
      </g>
     </g>
    </g>
    <g id="xtick_3">
     <g id="line2d_5">
      <g>
       <use style="stroke:#000000;stroke-width:0.5;" x="80.293006" xlink:href="#m58af6d142d" y="81.216"/>
      </g>
     </g>
     <g id="line2d_6">
      <g>
       <use style="stroke:#000000;stroke-width:0.5;" x="80.293006" xlink:href="#m634a998218" y="3.6"/>
      </g>
     </g>
     <g id="text_3">
      <!-- $\mathdefault{2}$ -->
      <g transform="translate(78.3543 89.684824)scale(0.07 -0.07)">
       <defs>
        <path d="M 3238 558 
L 851 558 
C 909 930 1114 1167 1670 1494 
L 2310 1840 
C 2944 2186 3270 2653 3270 3211 
C 3270 3589 3117 3942 2848 4185 
C 2579 4429 2246 4544 1818 4544 
C 1242 4544 813 4339 563 3955 
C 403 3711 333 3429 320 2967 
L 883 2967 
C 902 3275 941 3461 1018 3608 
C 1165 3884 1459 4051 1798 4051 
C 2310 4051 2694 3685 2694 3198 
C 2694 2839 2483 2531 2080 2301 
L 1491 1968 
C 544 1430 269 1000 218 0 
L 3238 0 
L 3238 558 
z
" id="NimbusSanL-Regu-32" transform="scale(0.015625)"/>
       </defs>
       <use transform="scale(0.996264)" xlink:href="#NimbusSanL-Regu-32"/>
      </g>
     </g>
    </g>
    <g id="xtick_4">
     <g id="line2d_7">
      <g>
       <use style="stroke:#000000;stroke-width:0.5;" x="110.72937" xlink:href="#m58af6d142d" y="81.216"/>
      </g>
     </g>
     <g id="line2d_8">
      <g>
       <use style="stroke:#000000;stroke-width:0.5;" x="110.72937" xlink:href="#m634a998218" y="3.6"/>
      </g>
     </g>
     <g id="text_4">
      <!-- $\mathdefault{3}$ -->
      <g transform="translate(108.790664 89.684824)scale(0.07 -0.07)">
       <defs>
        <path d="M 1414 2112 
L 1485 2112 
L 1722 2112 
C 2342 2112 2662 1830 2662 1284 
C 2662 712 2310 372 1722 372 
C 1107 372 806 681 768 1345 
L 205 1345 
C 230 978 294 740 403 534 
C 634 97 1082 -128 1702 -128 
C 2637 -128 3238 431 3238 1293 
C 3238 1872 3014 2194 2470 2381 
C 2893 2546 3104 2862 3104 3311 
C 3104 4082 2586 4544 1722 4544 
C 806 4544 320 4050 301 3095 
L 864 3095 
C 870 3366 896 3517 966 3655 
C 1094 3900 1376 4051 1728 4051 
C 2227 4051 2528 3760 2528 3287 
C 2528 2971 2413 2781 2163 2681 
C 2010 2618 1811 2592 1414 2592 
L 1414 2112 
z
" id="NimbusSanL-Regu-33" transform="scale(0.015625)"/>
       </defs>
       <use transform="scale(0.996264)" xlink:href="#NimbusSanL-Regu-33"/>
      </g>
     </g>
    </g>
    <g id="xtick_5">
     <g id="line2d_9">
      <defs>
       <path d="M 0 0 
L 0 -1.5 
" id="m95d05169cf" style="stroke:#000000;stroke-width:0.5;"/>
      </defs>
      <g>
       <use style="stroke:#000000;stroke-width:0.5;" x="25.507552" xlink:href="#m95d05169cf" y="81.216"/>
      </g>
     </g>
     <g id="line2d_10">
      <defs>
       <path d="M 0 0 
L 0 1.5 
" id="me383dd42b2" style="stroke:#000000;stroke-width:0.5;"/>
      </defs>
      <g>
       <use style="stroke:#000000;stroke-width:0.5;" x="25.507552" xlink:href="#me383dd42b2" y="3.6"/>
      </g>
     </g>
    </g>
    <g id="xtick_6">
     <g id="line2d_11">
      <g>
       <use style="stroke:#000000;stroke-width:0.5;" x="31.594824" xlink:href="#m95d05169cf" y="81.216"/>
      </g>
     </g>
     <g id="line2d_12">
      <g>
       <use style="stroke:#000000;stroke-width:0.5;" x="31.594824" xlink:href="#me383dd42b2" y="3.6"/>
      </g>
     </g>
    </g>
    <g id="xtick_7">
     <g id="line2d_13">
      <g>
       <use style="stroke:#000000;stroke-width:0.5;" x="37.682097" xlink:href="#m95d05169cf" y="81.216"/>
      </g>
     </g>
     <g id="line2d_14">
      <g>
       <use style="stroke:#000000;stroke-width:0.5;" x="37.682097" xlink:href="#me383dd42b2" y="3.6"/>
      </g>
     </g>
    </g>
    <g id="xtick_8">
     <g id="line2d_15">
      <g>
       <use style="stroke:#000000;stroke-width:0.5;" x="43.76937" xlink:href="#m95d05169cf" y="81.216"/>
      </g>
     </g>
     <g id="line2d_16">
      <g>
       <use style="stroke:#000000;stroke-width:0.5;" x="43.76937" xlink:href="#me383dd42b2" y="3.6"/>
      </g>
     </g>
    </g>
    <g id="xtick_9">
     <g id="line2d_17">
      <g>
       <use style="stroke:#000000;stroke-width:0.5;" x="55.943915" xlink:href="#m95d05169cf" y="81.216"/>
      </g>
     </g>
     <g id="line2d_18">
      <g>
       <use style="stroke:#000000;stroke-width:0.5;" x="55.943915" xlink:href="#me383dd42b2" y="3.6"/>
      </g>
     </g>
    </g>
    <g id="xtick_10">
     <g id="line2d_19">
      <g>
       <use style="stroke:#000000;stroke-width:0.5;" x="62.031188" xlink:href="#m95d05169cf" y="81.216"/>
      </g>
     </g>
     <g id="line2d_20">
      <g>
       <use style="stroke:#000000;stroke-width:0.5;" x="62.031188" xlink:href="#me383dd42b2" y="3.6"/>
      </g>
     </g>
    </g>
    <g id="xtick_11">
     <g id="line2d_21">
      <g>
       <use style="stroke:#000000;stroke-width:0.5;" x="68.118461" xlink:href="#m95d05169cf" y="81.216"/>
      </g>
     </g>
     <g id="line2d_22">
      <g>
       <use style="stroke:#000000;stroke-width:0.5;" x="68.118461" xlink:href="#me383dd42b2" y="3.6"/>
      </g>
     </g>
    </g>
    <g id="xtick_12">
     <g id="line2d_23">
      <g>
       <use style="stroke:#000000;stroke-width:0.5;" x="74.205734" xlink:href="#m95d05169cf" y="81.216"/>
      </g>
     </g>
     <g id="line2d_24">
      <g>
       <use style="stroke:#000000;stroke-width:0.5;" x="74.205734" xlink:href="#me383dd42b2" y="3.6"/>
      </g>
     </g>
    </g>
    <g id="xtick_13">
     <g id="line2d_25">
      <g>
       <use style="stroke:#000000;stroke-width:0.5;" x="86.380279" xlink:href="#m95d05169cf" y="81.216"/>
      </g>
     </g>
     <g id="line2d_26">
      <g>
       <use style="stroke:#000000;stroke-width:0.5;" x="86.380279" xlink:href="#me383dd42b2" y="3.6"/>
      </g>
     </g>
    </g>
    <g id="xtick_14">
     <g id="line2d_27">
      <g>
       <use style="stroke:#000000;stroke-width:0.5;" x="92.467552" xlink:href="#m95d05169cf" y="81.216"/>
      </g>
     </g>
     <g id="line2d_28">
      <g>
       <use style="stroke:#000000;stroke-width:0.5;" x="92.467552" xlink:href="#me383dd42b2" y="3.6"/>
      </g>
     </g>
    </g>
    <g id="xtick_15">
     <g id="line2d_29">
      <g>
       <use style="stroke:#000000;stroke-width:0.5;" x="98.554824" xlink:href="#m95d05169cf" y="81.216"/>
      </g>
     </g>
     <g id="line2d_30">
      <g>
       <use style="stroke:#000000;stroke-width:0.5;" x="98.554824" xlink:href="#me383dd42b2" y="3.6"/>
      </g>
     </g>
    </g>
    <g id="xtick_16">
     <g id="line2d_31">
      <g>
       <use style="stroke:#000000;stroke-width:0.5;" x="104.642097" xlink:href="#m95d05169cf" y="81.216"/>
      </g>
     </g>
     <g id="line2d_32">
      <g>
       <use style="stroke:#000000;stroke-width:0.5;" x="104.642097" xlink:href="#me383dd42b2" y="3.6"/>
      </g>
     </g>
    </g>
   </g>
   <g id="matplotlib.axis_2">
    <g id="ytick_1">
     <g id="line2d_33">
      <defs>
       <path d="M 0 0 
L 3 0 
" id="m6af3e495be" style="stroke:#000000;stroke-width:0.5;"/>
      </defs>
      <g>
       <use style="stroke:#000000;stroke-width:0.5;" x="14.854824" xlink:href="#m6af3e495be" y="69.26419"/>
      </g>
     </g>
     <g id="line2d_34">
      <defs>
       <path d="M 0 0 
L -3 0 
" id="mb8f2d87618" style="stroke:#000000;stroke-width:0.5;"/>
      </defs>
      <g>
       <use style="stroke:#000000;stroke-width:0.5;" x="115.294824" xlink:href="#mb8f2d87618" y="69.26419"/>
      </g>
     </g>
     <g id="text_5">
      <!-- $\mathdefault{20}$ -->
      <g transform="translate(3.6 71.748602)scale(0.07 -0.07)">
       <use transform="scale(0.996264)" xlink:href="#NimbusSanL-Regu-32"/>
       <use transform="translate(55.391677 0)scale(0.996264)" xlink:href="#NimbusSanL-Regu-30"/>
      </g>
     </g>
    </g>
    <g id="ytick_2">
     <g id="line2d_35">
      <g>
       <use style="stroke:#000000;stroke-width:0.5;" x="14.854824" xlink:href="#m6af3e495be" y="50.847464"/>
      </g>
     </g>
     <g id="line2d_36">
      <g>
       <use style="stroke:#000000;stroke-width:0.5;" x="115.294824" xlink:href="#mb8f2d87618" y="50.847464"/>
      </g>
     </g>
     <g id="text_6">
      <!-- $\mathdefault{40}$ -->
      <g transform="translate(3.6 53.331877)scale(0.07 -0.07)">
       <defs>
        <path d="M 2093 1088 
L 2093 0 
L 2656 0 
L 2656 1088 
L 3328 1088 
L 3328 1594 
L 2656 1594 
L 2656 4545 
L 2240 4545 
L 179 1684 
L 179 1088 
L 2093 1088 
z
M 2093 1594 
L 672 1594 
L 2093 3583 
L 2093 1594 
z
" id="NimbusSanL-Regu-34" transform="scale(0.015625)"/>
       </defs>
       <use transform="scale(0.996264)" xlink:href="#NimbusSanL-Regu-34"/>
       <use transform="translate(55.391677 0)scale(0.996264)" xlink:href="#NimbusSanL-Regu-30"/>
      </g>
     </g>
    </g>
    <g id="ytick_3">
     <g id="line2d_37">
      <g>
       <use style="stroke:#000000;stroke-width:0.5;" x="14.854824" xlink:href="#m6af3e495be" y="32.430739"/>
      </g>
     </g>
     <g id="line2d_38">
      <g>
       <use style="stroke:#000000;stroke-width:0.5;" x="115.294824" xlink:href="#mb8f2d87618" y="32.430739"/>
      </g>
     </g>
     <g id="text_7">
      <!-- $\mathdefault{60}$ -->
      <g transform="translate(3.6 34.915151)scale(0.07 -0.07)">
       <defs>
        <path d="M 3187 3382 
C 3078 4111 2592 4544 1901 4544 
C 1402 4544 954 4302 685 3900 
C 403 3460 275 2904 275 2081 
C 275 1321 390 836 659 434 
C 902 69 1299 -128 1798 -128 
C 2662 -128 3283 518 3283 1415 
C 3283 2268 2707 2868 1894 2868 
C 1446 2868 1094 2695 851 2362 
C 858 3444 1216 4044 1862 4044 
C 2259 4044 2534 3803 2624 3382 
L 3187 3382 
z
M 1824 2368 
C 2368 2368 2707 1986 2707 1370 
C 2707 793 2323 372 1805 372 
C 1280 372 883 813 883 1402 
C 883 1973 1267 2368 1824 2368 
z
" id="NimbusSanL-Regu-36" transform="scale(0.015625)"/>
       </defs>
       <use transform="scale(0.996264)" xlink:href="#NimbusSanL-Regu-36"/>
       <use transform="translate(55.391677 0)scale(0.996264)" xlink:href="#NimbusSanL-Regu-30"/>
      </g>
     </g>
    </g>
    <g id="ytick_4">
     <g id="line2d_39">
      <g>
       <use style="stroke:#000000;stroke-width:0.5;" x="14.854824" xlink:href="#m6af3e495be" y="14.014014"/>
      </g>
     </g>
     <g id="line2d_40">
      <g>
       <use style="stroke:#000000;stroke-width:0.5;" x="115.294824" xlink:href="#mb8f2d87618" y="14.014014"/>
      </g>
     </g>
     <g id="text_8">
      <!-- $\mathdefault{80}$ -->
      <g transform="translate(3.6 16.498426)scale(0.07 -0.07)">
       <defs>
        <path d="M 2502 2399 
C 2970 2680 3123 2910 3123 3338 
C 3123 4046 2566 4544 1760 4544 
C 960 4544 397 4046 397 3338 
C 397 2917 550 2687 1011 2399 
C 493 2150 237 1774 237 1276 
C 237 446 864 -128 1760 -128 
C 2656 -128 3283 447 3283 1270 
C 3283 1774 3027 2150 2502 2399 
z
M 1760 4044 
C 2240 4044 2547 3764 2547 3325 
C 2547 2904 2234 2624 1760 2624 
C 1286 2624 973 2904 973 3331 
C 973 3764 1286 4044 1760 4044 
z
M 1760 2149 
C 2323 2149 2707 1792 2707 1263 
C 2707 729 2323 372 1747 372 
C 1197 372 813 735 813 1263 
C 813 1792 1197 2149 1760 2149 
z
" id="NimbusSanL-Regu-38" transform="scale(0.015625)"/>
       </defs>
       <use transform="scale(0.996264)" xlink:href="#NimbusSanL-Regu-38"/>
       <use transform="translate(55.391677 0)scale(0.996264)" xlink:href="#NimbusSanL-Regu-30"/>
      </g>
     </g>
    </g>
    <g id="ytick_5">
     <g id="line2d_41">
      <defs>
       <path d="M 0 0 
L 1.5 0 
" id="m6c7f569ba7" style="stroke:#000000;stroke-width:0.5;"/>
      </defs>
      <g>
       <use style="stroke:#000000;stroke-width:0.5;" x="14.854824" xlink:href="#m6c7f569ba7" y="78.472553"/>
      </g>
     </g>
     <g id="line2d_42">
      <defs>
       <path d="M 0 0 
L -1.5 0 
" id="m41e17490b5" style="stroke:#000000;stroke-width:0.5;"/>
      </defs>
      <g>
       <use style="stroke:#000000;stroke-width:0.5;" x="115.294824" xlink:href="#m41e17490b5" y="78.472553"/>
      </g>
     </g>
    </g>
    <g id="ytick_6">
     <g id="line2d_43">
      <g>
       <use style="stroke:#000000;stroke-width:0.5;" x="14.854824" xlink:href="#m6c7f569ba7" y="73.868371"/>
      </g>
     </g>
     <g id="line2d_44">
      <g>
       <use style="stroke:#000000;stroke-width:0.5;" x="115.294824" xlink:href="#m41e17490b5" y="73.868371"/>
      </g>
     </g>
    </g>
    <g id="ytick_7">
     <g id="line2d_45">
      <g>
       <use style="stroke:#000000;stroke-width:0.5;" x="14.854824" xlink:href="#m6c7f569ba7" y="64.660008"/>
      </g>
     </g>
     <g id="line2d_46">
      <g>
       <use style="stroke:#000000;stroke-width:0.5;" x="115.294824" xlink:href="#m41e17490b5" y="64.660008"/>
      </g>
     </g>
    </g>
    <g id="ytick_8">
     <g id="line2d_47">
      <g>
       <use style="stroke:#000000;stroke-width:0.5;" x="14.854824" xlink:href="#m6c7f569ba7" y="60.055827"/>
      </g>
     </g>
     <g id="line2d_48">
      <g>
       <use style="stroke:#000000;stroke-width:0.5;" x="115.294824" xlink:href="#m41e17490b5" y="60.055827"/>
      </g>
     </g>
    </g>
    <g id="ytick_9">
     <g id="line2d_49">
      <g>
       <use style="stroke:#000000;stroke-width:0.5;" x="14.854824" xlink:href="#m6c7f569ba7" y="55.451646"/>
      </g>
     </g>
     <g id="line2d_50">
      <g>
       <use style="stroke:#000000;stroke-width:0.5;" x="115.294824" xlink:href="#m41e17490b5" y="55.451646"/>
      </g>
     </g>
    </g>
    <g id="ytick_10">
     <g id="line2d_51">
      <g>
       <use style="stroke:#000000;stroke-width:0.5;" x="14.854824" xlink:href="#m6c7f569ba7" y="46.243283"/>
      </g>
     </g>
     <g id="line2d_52">
      <g>
       <use style="stroke:#000000;stroke-width:0.5;" x="115.294824" xlink:href="#m41e17490b5" y="46.243283"/>
      </g>
     </g>
    </g>
    <g id="ytick_11">
     <g id="line2d_53">
      <g>
       <use style="stroke:#000000;stroke-width:0.5;" x="14.854824" xlink:href="#m6c7f569ba7" y="41.639102"/>
      </g>
     </g>
     <g id="line2d_54">
      <g>
       <use style="stroke:#000000;stroke-width:0.5;" x="115.294824" xlink:href="#m41e17490b5" y="41.639102"/>
      </g>
     </g>
    </g>
    <g id="ytick_12">
     <g id="line2d_55">
      <g>
       <use style="stroke:#000000;stroke-width:0.5;" x="14.854824" xlink:href="#m6c7f569ba7" y="37.03492"/>
      </g>
     </g>
     <g id="line2d_56">
      <g>
       <use style="stroke:#000000;stroke-width:0.5;" x="115.294824" xlink:href="#m41e17490b5" y="37.03492"/>
      </g>
     </g>
    </g>
    <g id="ytick_13">
     <g id="line2d_57">
      <g>
       <use style="stroke:#000000;stroke-width:0.5;" x="14.854824" xlink:href="#m6c7f569ba7" y="27.826558"/>
      </g>
     </g>
     <g id="line2d_58">
      <g>
       <use style="stroke:#000000;stroke-width:0.5;" x="115.294824" xlink:href="#m41e17490b5" y="27.826558"/>
      </g>
     </g>
    </g>
    <g id="ytick_14">
     <g id="line2d_59">
      <g>
       <use style="stroke:#000000;stroke-width:0.5;" x="14.854824" xlink:href="#m6c7f569ba7" y="23.222376"/>
      </g>
     </g>
     <g id="line2d_60">
      <g>
       <use style="stroke:#000000;stroke-width:0.5;" x="115.294824" xlink:href="#m41e17490b5" y="23.222376"/>
      </g>
     </g>
    </g>
    <g id="ytick_15">
     <g id="line2d_61">
      <g>
       <use style="stroke:#000000;stroke-width:0.5;" x="14.854824" xlink:href="#m6c7f569ba7" y="18.618195"/>
      </g>
     </g>
     <g id="line2d_62">
      <g>
       <use style="stroke:#000000;stroke-width:0.5;" x="115.294824" xlink:href="#m41e17490b5" y="18.618195"/>
      </g>
     </g>
    </g>
    <g id="ytick_16">
     <g id="line2d_63">
      <g>
       <use style="stroke:#000000;stroke-width:0.5;" x="14.854824" xlink:href="#m6c7f569ba7" y="9.409832"/>
      </g>
     </g>
     <g id="line2d_64">
      <g>
       <use style="stroke:#000000;stroke-width:0.5;" x="115.294824" xlink:href="#m41e17490b5" y="9.409832"/>
      </g>
     </g>
    </g>
    <g id="ytick_17">
     <g id="line2d_65">
      <g>
       <use style="stroke:#000000;stroke-width:0.5;" x="14.854824" xlink:href="#m6c7f569ba7" y="4.805651"/>
      </g>
     </g>
     <g id="line2d_66">
      <g>
       <use style="stroke:#000000;stroke-width:0.5;" x="115.294824" xlink:href="#m41e17490b5" y="4.805651"/>
      </g>
     </g>
    </g>
   </g>
   <g id="line2d_67">
    <path clip-path="url(#p4f128b433a)" d="M 19.420279 11.518547 
L 25.507552 11.739548 
L 31.594824 13.017669 
L 37.682097 17.426633 
L 43.76937 24.95539 
L 49.856643 32.905891 
L 55.943915 40.543307 
L 62.031188 46.018599 
L 68.118461 50.989273 
L 74.205734 55.363245 
L 80.293006 58.011571 
L 86.380279 60.464678 
L 92.467552 62.457368 
L 98.554824 64.310091 
L 104.642097 65.757645 
L 110.72937 66.547723 
" style="fill:none;stroke:#1f77b4;stroke-linecap:square;"/>
   </g>
   <g id="line2d_68">
    <path clip-path="url(#p4f128b433a)" d="M 19.420279 10.597711 
L 25.507552 10.765303 
L 31.594824 12.299416 
L 37.682097 17.658684 
L 43.76937 27.137772 
L 49.856643 37.499022 
L 55.943915 46.055432 
L 62.031188 52.337377 
L 68.118461 56.505082 
L 74.205734 59.786943 
L 80.293006 63.037495 
L 86.380279 64.682109 
L 92.467552 66.532989 
L 98.554824 67.742968 
L 104.642097 68.884805 
L 110.72937 69.750391 
" style="fill:none;stroke:#ff7f0e;stroke-linecap:square;"/>
   </g>
   <g id="line2d_69">
    <path clip-path="url(#p4f128b433a)" d="M 19.420279 7.128 
L 25.507552 7.188775 
L 31.594824 8.337979 
L 37.682097 15.154009 
L 43.76937 32.791707 
L 49.856643 49.326243 
L 55.943915 60.910363 
L 62.031188 67.661935 
L 68.118461 71.354488 
L 74.205734 74.019388 
L 80.293006 75.514826 
L 86.380279 76.389621 
L 92.467552 76.853722 
L 98.554824 77.249682 
L 104.642097 77.406224 
L 110.72937 77.688 
" style="fill:none;stroke:#000000;stroke-dasharray:3.7,1.6;stroke-dashoffset:0;"/>
   </g>
   <g id="patch_3">
    <path d="M 14.854824 81.216 
L 14.854824 3.6 
" style="fill:none;stroke:#000000;stroke-linecap:square;stroke-linejoin:miter;stroke-width:0.5;"/>
   </g>
   <g id="patch_4">
    <path d="M 115.294824 81.216 
L 115.294824 3.6 
" style="fill:none;stroke:#000000;stroke-linecap:square;stroke-linejoin:miter;stroke-width:0.5;"/>
   </g>
   <g id="patch_5">
    <path d="M 14.854824 81.216 
L 115.294824 81.216 
" style="fill:none;stroke:#000000;stroke-linecap:square;stroke-linejoin:miter;stroke-width:0.5;"/>
   </g>
   <g id="patch_6">
    <path d="M 14.854824 3.6 
L 115.294824 3.6 
" style="fill:none;stroke:#000000;stroke-linecap:square;stroke-linejoin:miter;stroke-width:0.5;"/>
   </g>
  </g>
 </g>
 <defs>
  <clipPath id="p4f128b433a">
   <rect height="77.616" width="100.44" x="14.854824" y="3.6"/>
  </clipPath>
 </defs>
</svg>
